<?xml version="1.0" encoding="utf-8"?>
<!-- Generator: Adobe Illustrator 23.1.1, SVG Export Plug-In . SVG Version: 6.00 Build 0)  -->
<svg version="1.1" id="Layer_1" xmlns:sketch="http://www.bohemiancoding.com/sketch/ns"
	 xmlns="http://www.w3.org/2000/svg" xmlns:xlink="http://www.w3.org/1999/xlink" x="0px" y="0px" viewBox="0 0 32 32"
	 style="enable-background:new 0 0 32 32;" xml:space="preserve">
<style type="text/css">
	.st0{fill-rule:evenodd;clip-rule:evenodd;fill:#1E6382;}
</style>
<title></title>
<desc></desc>
<g id="Page-1">
	<g id="icon-43-wind">
		<path id="wind" class="st0" d="M30,14c0-2.2-1.8-4-4-4c-2.2,0-4,1.8-4,4h2c0-1.1,0.9-2,2-2c1.1,0,2,0.9,2,2c0,1.1-0.9,2-2,2H3v2
			h23C28.2,18,30,16.2,30,14L30,14z M21,10c0-2.2-1.8-4-4-4c-2.2,0-4,1.8-4,4v0h2c0-1.1,0.9-2,2-2c1.1,0,2,0.9,2,2c0,1.1-0.9,2-2,2
			H5v2h12C19.2,14,21,12.2,21,10L21,10z M26,23c0,1.7-1.3,3-3,3l0,0c-1.7,0-3-1.3-3-3v0h2c0,0.6,0.4,1,1,1l0,0c0.6,0,1-0.4,1-1l0,0
			c0-0.6-0.4-1-1-1H9v-2h14C24.7,20,26,21.3,26,23L26,23L26,23z"/>
	</g>
</g>
</svg>
